<svg width="1600" height="1000" viewBox="0 0 1600 1000" fill="none" xmlns="http://www.w3.org/2000/svg">
  <rect width="1600" height="1000" fill="#0F172A"/>
  <rect width="1600" height="1000" fill="url(#bg)"/>
  <circle cx="1250" cy="200" r="220" fill="#38BDF8" fill-opacity="0.15"/>
  <circle cx="260" cy="820" r="250" fill="#F97316" fill-opacity="0.12"/>
  <rect x="120" y="120" width="1360" height="760" rx="44" fill="#0B1120" fill-opacity="0.76" stroke="#1E293B" stroke-width="3"/>
  <path d="M250 770C420 620 570 655 740 600C920 542 1025 408 1185 360C1278 332 1355 335 1440 362" stroke="#F8FAFC" stroke-width="22" stroke-linecap="round"/>
  <path d="M310 760C458 632 596 658 752 612C900 568 1022 456 1130 400" stroke="#0F172A" stroke-width="10" stroke-linecap="round" stroke-dasharray="12 16"/>
  <rect x="510" y="420" width="420" height="210" rx="42" fill="#111827" stroke="#334155" stroke-width="4"/>
  <circle cx="580" cy="650" r="54" fill="#020617" stroke="#475569" stroke-width="8"/>
  <circle cx="860" cy="650" r="54" fill="#020617" stroke="#475569" stroke-width="8"/>
  <rect x="598" y="470" width="244" height="68" rx="24" fill="#38BDF8"/>
  <circle cx="638" cy="400" r="28" fill="#F97316"/>
  <circle cx="722" cy="390" r="28" fill="#FACC15"/>
  <circle cx="806" cy="400" r="28" fill="#4ADE80"/>
  <rect x="640" y="575" width="18" height="68" rx="9" fill="#F8FAFC"/>
  <rect x="710" y="575" width="18" height="68" rx="9" fill="#F8FAFC"/>
  <rect x="780" y="575" width="18" height="68" rx="9" fill="#F8FAFC"/>
  <text x="190" y="190" fill="#F8FAFC" font-family="Arial, sans-serif" font-size="64" font-weight="700">Line Follower Robot</text>
  <text x="190" y="845" fill="#CBD5E1" font-family="Arial, sans-serif" font-size="30">IR sensing, motor control, and path correction logic</text>
  <defs>
    <linearGradient id="bg" x1="120" y1="120" x2="1500" y2="920" gradientUnits="userSpaceOnUse">
      <stop stop-color="#020617"/>
      <stop offset="0.55" stop-color="#0F172A"/>
      <stop offset="1" stop-color="#1E293B"/>
    </linearGradient>
  </defs>
</svg>
